<svg id="Capa_1" data-name="Capa 1" xmlns="http://www.w3.org/2000/svg" viewBox="0 0 594.53 846"><path d="M1189.73,634.42c-6.92,61.82-23.07,114-45.33,157q-6.5,12.54-13.65,24C1074.3,906.33,988.61,949,911.58,949c-112,0-192.86-57.08-222.56-151h0q-1.8-5.67-3.33-11.52a289.13,289.13,0,0,1-9.15-74c0-153,128.35-222.46,241.58-283.77,86.9-47.06,162-87.75,162.82-155.24,0-.36,0-.72,0-1.08a13,13,0,0,1,26,0A113.55,113.55,0,0,1,1090.83,331c-29,49.43-93.3,84.25-160.35,120.55C824.59,508.89,715.3,568.1,703.58,690.41q-1,10.7-1,22.06c0,26.77,3.21,50.57,9,71.63,28,101,116.36,138.9,200,138.9,70.94,0,150.09-41,201.31-128.41q6.9-11.77,13.1-24.68c18.44-38.45,31.85-84.47,37.89-138.39a13,13,0,1,1,25.85,2.9Z" transform="translate(-662.53 -117)" stroke="#000" stroke-miterlimit="10" stroke-width="28"/><path d="M1091.22,345.75c0,98.87-97.41,149.86-200.56,203.84-75.18,39.35-152.11,79.6-187.08,140.82,11.72-122.31,121-181.52,226.9-238.85,67-36.3,131.35-71.12,160.35-120.55Q1091.22,338.27,1091.22,345.75Z" transform="translate(-662.53 -117)" stroke="#000" stroke-miterlimit="10" stroke-width="28"/><path d="M1117.23,345.75c0,114.61-109.05,171.69-214.51,226.87S697.32,680.11,711.58,784.1c.17,1.29.37,2.59.58,3.9a13,13,0,0,1-10.74,14.92,13.63,13.63,0,0,1-2.11.16A13,13,0,0,1,689,798h0a12.94,12.94,0,0,1-2.5-5.82q-.46-2.88-.83-5.7c-4.94-37.36,2.31-68.79,17.9-96.06,35-61.22,111.9-101.47,187.08-140.82,103.15-54,200.56-105,200.56-203.84q0-7.47-.39-14.74a239.24,239.24,0,0,0-9.9-57.55C1059.17,202.4,1004.55,157,933.55,157c-69,0-129.54,34.32-154.3,87.44-21.33,45.77-25.73,81.43,13.07,127.61l10,12.78a13,13,0,1,1-18.89,17.86L773.3,389.74c-.25-.26-.5-.54-.74-.83-45.2-54.05-42.27-100.94-16.87-155.46C784.69,171.21,854.5,131,933.55,131,1041.7,131,1117.23,219.31,1117.23,345.75Z" transform="translate(-662.53 -117)" stroke="#000" stroke-miterlimit="10" stroke-width="28"/><path d="M1230.05,924.66a13,13,0,0,1-9.87-4.56L982,641.41a13,13,0,1,1,19.76-16.89l238.22,278.69a13,13,0,0,1-9.88,21.45Z" transform="translate(-662.53 -117)" stroke="#000" stroke-miterlimit="10" stroke-width="28"/><path d="M768.93,893" transform="translate(-662.53 -117)" stroke="#000" stroke-miterlimit="10" stroke-width="28"/><path d="M1239,922" transform="translate(-662.53 -117)" fill="none" stroke="#000" stroke-miterlimit="10" stroke-width="28"/><path d="M816,418" transform="translate(-662.53 -117)" fill="none" stroke="#000" stroke-miterlimit="10" stroke-width="28"/></svg>